<mxfile host="app.diagrams.net" modified="2021-03-01T07:30:01.723Z" agent="5.0 (Windows)" etag="Lgmd1rSCVeCEHGlWWCOB" version="14.4.3" type="github">
  <diagram id="byaZlh_3dv8LxVIM-IVm" name="Page-1">
    <mxGraphModel dx="1888" dy="1647" grid="1" gridSize="10" guides="1" tooltips="1" connect="1" arrows="1" fold="1" page="1" pageScale="1" pageWidth="850" pageHeight="1100" math="0" shadow="0">
      <root>
        <mxCell id="0" />
        <mxCell id="1" parent="0" />
        <mxCell id="63PMhtbG-VXiKkrFZsze-92" value="" style="rounded=0;whiteSpace=wrap;html=1;" parent="1" vertex="1">
          <mxGeometry x="950" y="-250" width="980" height="600" as="geometry" />
        </mxCell>
        <mxCell id="63PMhtbG-VXiKkrFZsze-62" value="" style="rounded=0;whiteSpace=wrap;html=1;fillColor=#d5e8d4;strokeColor=#82b366;" parent="1" vertex="1">
          <mxGeometry x="-270" y="-380" width="590" height="700" as="geometry" />
        </mxCell>
        <mxCell id="63PMhtbG-VXiKkrFZsze-60" value="" style="rounded=0;whiteSpace=wrap;html=1;" parent="1" vertex="1">
          <mxGeometry x="-390" y="510" width="1170" height="1000" as="geometry" />
        </mxCell>
        <mxCell id="63PMhtbG-VXiKkrFZsze-4" style="edgeStyle=orthogonalEdgeStyle;rounded=0;orthogonalLoop=1;jettySize=auto;html=1;entryX=0;entryY=0.5;entryDx=0;entryDy=0;" parent="1" source="63PMhtbG-VXiKkrFZsze-1" target="63PMhtbG-VXiKkrFZsze-3" edge="1">
          <mxGeometry relative="1" as="geometry" />
        </mxCell>
        <mxCell id="63PMhtbG-VXiKkrFZsze-6" style="edgeStyle=orthogonalEdgeStyle;rounded=0;orthogonalLoop=1;jettySize=auto;html=1;entryX=0;entryY=0.5;entryDx=0;entryDy=0;" parent="1" source="63PMhtbG-VXiKkrFZsze-1" target="63PMhtbG-VXiKkrFZsze-5" edge="1">
          <mxGeometry relative="1" as="geometry" />
        </mxCell>
        <mxCell id="63PMhtbG-VXiKkrFZsze-8" style="edgeStyle=orthogonalEdgeStyle;rounded=0;orthogonalLoop=1;jettySize=auto;html=1;entryX=0;entryY=0.5;entryDx=0;entryDy=0;" parent="1" source="63PMhtbG-VXiKkrFZsze-1" target="63PMhtbG-VXiKkrFZsze-7" edge="1">
          <mxGeometry relative="1" as="geometry" />
        </mxCell>
        <mxCell id="63PMhtbG-VXiKkrFZsze-1" value="&lt;div&gt;Authentication&lt;/div&gt;&lt;div&gt;(Account)&lt;br&gt;&lt;/div&gt;" style="rounded=0;whiteSpace=wrap;html=1;" parent="1" vertex="1">
          <mxGeometry x="-170" y="-290" width="120" height="60" as="geometry" />
        </mxCell>
        <mxCell id="63PMhtbG-VXiKkrFZsze-55" style="edgeStyle=orthogonalEdgeStyle;rounded=0;orthogonalLoop=1;jettySize=auto;html=1;entryX=0;entryY=0.5;entryDx=0;entryDy=0;" parent="1" source="63PMhtbG-VXiKkrFZsze-2" target="63PMhtbG-VXiKkrFZsze-10" edge="1">
          <mxGeometry relative="1" as="geometry" />
        </mxCell>
        <mxCell id="63PMhtbG-VXiKkrFZsze-56" style="edgeStyle=orthogonalEdgeStyle;rounded=0;orthogonalLoop=1;jettySize=auto;html=1;" parent="1" source="63PMhtbG-VXiKkrFZsze-2" target="63PMhtbG-VXiKkrFZsze-17" edge="1">
          <mxGeometry relative="1" as="geometry" />
        </mxCell>
        <mxCell id="63PMhtbG-VXiKkrFZsze-57" style="edgeStyle=orthogonalEdgeStyle;rounded=0;orthogonalLoop=1;jettySize=auto;html=1;entryX=0;entryY=0.5;entryDx=0;entryDy=0;" parent="1" source="63PMhtbG-VXiKkrFZsze-2" target="63PMhtbG-VXiKkrFZsze-22" edge="1">
          <mxGeometry relative="1" as="geometry" />
        </mxCell>
        <mxCell id="63PMhtbG-VXiKkrFZsze-58" style="edgeStyle=orthogonalEdgeStyle;rounded=0;orthogonalLoop=1;jettySize=auto;html=1;entryX=0;entryY=0.5;entryDx=0;entryDy=0;" parent="1" source="63PMhtbG-VXiKkrFZsze-2" target="63PMhtbG-VXiKkrFZsze-49" edge="1">
          <mxGeometry relative="1" as="geometry" />
        </mxCell>
        <mxCell id="63PMhtbG-VXiKkrFZsze-2" value="&lt;div&gt;Homepage (customer):&lt;/div&gt;" style="rounded=0;whiteSpace=wrap;html=1;" parent="1" vertex="1">
          <mxGeometry x="-280" y="910" width="210" height="100" as="geometry" />
        </mxCell>
        <mxCell id="63PMhtbG-VXiKkrFZsze-3" value="Customer" style="rounded=0;whiteSpace=wrap;html=1;" parent="1" vertex="1">
          <mxGeometry x="40" y="-330" width="120" height="60" as="geometry" />
        </mxCell>
        <mxCell id="63PMhtbG-VXiKkrFZsze-5" value="Employee" style="rounded=0;whiteSpace=wrap;html=1;" parent="1" vertex="1">
          <mxGeometry x="40" y="-250" width="120" height="60" as="geometry" />
        </mxCell>
        <mxCell id="63PMhtbG-VXiKkrFZsze-7" value="Manager" style="rounded=0;whiteSpace=wrap;html=1;" parent="1" vertex="1">
          <mxGeometry x="40" y="-160" width="120" height="60" as="geometry" />
        </mxCell>
        <mxCell id="63PMhtbG-VXiKkrFZsze-42" style="edgeStyle=orthogonalEdgeStyle;rounded=0;orthogonalLoop=1;jettySize=auto;html=1;entryX=0;entryY=0.5;entryDx=0;entryDy=0;" parent="1" source="63PMhtbG-VXiKkrFZsze-9" target="63PMhtbG-VXiKkrFZsze-41" edge="1">
          <mxGeometry relative="1" as="geometry" />
        </mxCell>
        <mxCell id="63PMhtbG-VXiKkrFZsze-44" style="edgeStyle=orthogonalEdgeStyle;rounded=0;orthogonalLoop=1;jettySize=auto;html=1;entryX=0;entryY=0.5;entryDx=0;entryDy=0;" parent="1" source="63PMhtbG-VXiKkrFZsze-9" target="63PMhtbG-VXiKkrFZsze-38" edge="1">
          <mxGeometry relative="1" as="geometry" />
        </mxCell>
        <mxCell id="63PMhtbG-VXiKkrFZsze-45" style="edgeStyle=orthogonalEdgeStyle;rounded=0;orthogonalLoop=1;jettySize=auto;html=1;entryX=0;entryY=0.5;entryDx=0;entryDy=0;" parent="1" source="63PMhtbG-VXiKkrFZsze-9" target="63PMhtbG-VXiKkrFZsze-39" edge="1">
          <mxGeometry relative="1" as="geometry" />
        </mxCell>
        <mxCell id="63PMhtbG-VXiKkrFZsze-46" style="edgeStyle=orthogonalEdgeStyle;rounded=0;orthogonalLoop=1;jettySize=auto;html=1;entryX=0;entryY=0.5;entryDx=0;entryDy=0;" parent="1" source="63PMhtbG-VXiKkrFZsze-9" target="63PMhtbG-VXiKkrFZsze-40" edge="1">
          <mxGeometry relative="1" as="geometry" />
        </mxCell>
        <mxCell id="63PMhtbG-VXiKkrFZsze-9" value="Registration" style="rounded=0;whiteSpace=wrap;html=1;" parent="1" vertex="1">
          <mxGeometry x="-150" y="80" width="120" height="60" as="geometry" />
        </mxCell>
        <mxCell id="63PMhtbG-VXiKkrFZsze-15" style="edgeStyle=orthogonalEdgeStyle;rounded=0;orthogonalLoop=1;jettySize=auto;html=1;entryX=0;entryY=0.5;entryDx=0;entryDy=0;" parent="1" source="63PMhtbG-VXiKkrFZsze-10" target="63PMhtbG-VXiKkrFZsze-12" edge="1">
          <mxGeometry relative="1" as="geometry" />
        </mxCell>
        <mxCell id="63PMhtbG-VXiKkrFZsze-16" style="edgeStyle=orthogonalEdgeStyle;rounded=0;orthogonalLoop=1;jettySize=auto;html=1;entryX=0;entryY=0.5;entryDx=0;entryDy=0;" parent="1" source="63PMhtbG-VXiKkrFZsze-10" target="63PMhtbG-VXiKkrFZsze-13" edge="1">
          <mxGeometry relative="1" as="geometry" />
        </mxCell>
        <mxCell id="63PMhtbG-VXiKkrFZsze-63" style="edgeStyle=orthogonalEdgeStyle;rounded=0;orthogonalLoop=1;jettySize=auto;html=1;entryX=0;entryY=0.5;entryDx=0;entryDy=0;" parent="1" source="63PMhtbG-VXiKkrFZsze-10" target="63PMhtbG-VXiKkrFZsze-11" edge="1">
          <mxGeometry relative="1" as="geometry" />
        </mxCell>
        <mxCell id="63PMhtbG-VXiKkrFZsze-10" value="Show products" style="rounded=0;whiteSpace=wrap;html=1;" parent="1" vertex="1">
          <mxGeometry x="110" y="630" width="120" height="60" as="geometry" />
        </mxCell>
        <mxCell id="63PMhtbG-VXiKkrFZsze-11" value="Hot" style="rounded=0;whiteSpace=wrap;html=1;" parent="1" vertex="1">
          <mxGeometry x="280" y="550" width="120" height="60" as="geometry" />
        </mxCell>
        <mxCell id="63PMhtbG-VXiKkrFZsze-12" value="New" style="rounded=0;whiteSpace=wrap;html=1;" parent="1" vertex="1">
          <mxGeometry x="280" y="630" width="120" height="60" as="geometry" />
        </mxCell>
        <mxCell id="63PMhtbG-VXiKkrFZsze-13" value="On sale" style="rounded=0;whiteSpace=wrap;html=1;" parent="1" vertex="1">
          <mxGeometry x="280" y="710" width="120" height="60" as="geometry" />
        </mxCell>
        <mxCell id="63PMhtbG-VXiKkrFZsze-19" style="edgeStyle=orthogonalEdgeStyle;rounded=0;orthogonalLoop=1;jettySize=auto;html=1;entryX=0;entryY=0.5;entryDx=0;entryDy=0;" parent="1" source="63PMhtbG-VXiKkrFZsze-17" target="63PMhtbG-VXiKkrFZsze-18" edge="1">
          <mxGeometry relative="1" as="geometry" />
        </mxCell>
        <mxCell id="63PMhtbG-VXiKkrFZsze-21" style="edgeStyle=orthogonalEdgeStyle;rounded=0;orthogonalLoop=1;jettySize=auto;html=1;entryX=0;entryY=0.5;entryDx=0;entryDy=0;" parent="1" source="63PMhtbG-VXiKkrFZsze-17" target="63PMhtbG-VXiKkrFZsze-20" edge="1">
          <mxGeometry relative="1" as="geometry" />
        </mxCell>
        <mxCell id="63PMhtbG-VXiKkrFZsze-17" value="Search products" style="rounded=0;whiteSpace=wrap;html=1;" parent="1" vertex="1">
          <mxGeometry x="110" y="860" width="120" height="60" as="geometry" />
        </mxCell>
        <mxCell id="63PMhtbG-VXiKkrFZsze-18" value="Search by name" style="rounded=0;whiteSpace=wrap;html=1;" parent="1" vertex="1">
          <mxGeometry x="280" y="810" width="120" height="60" as="geometry" />
        </mxCell>
        <mxCell id="63PMhtbG-VXiKkrFZsze-20" value="Search by category" style="rounded=0;whiteSpace=wrap;html=1;" parent="1" vertex="1">
          <mxGeometry x="280" y="920" width="120" height="60" as="geometry" />
        </mxCell>
        <mxCell id="63PMhtbG-VXiKkrFZsze-24" style="edgeStyle=orthogonalEdgeStyle;rounded=0;orthogonalLoop=1;jettySize=auto;html=1;entryX=0;entryY=0.5;entryDx=0;entryDy=0;" parent="1" source="63PMhtbG-VXiKkrFZsze-22" target="63PMhtbG-VXiKkrFZsze-23" edge="1">
          <mxGeometry relative="1" as="geometry" />
        </mxCell>
        <mxCell id="63PMhtbG-VXiKkrFZsze-26" style="edgeStyle=orthogonalEdgeStyle;rounded=0;orthogonalLoop=1;jettySize=auto;html=1;entryX=0;entryY=0.5;entryDx=0;entryDy=0;" parent="1" source="63PMhtbG-VXiKkrFZsze-22" target="63PMhtbG-VXiKkrFZsze-25" edge="1">
          <mxGeometry relative="1" as="geometry" />
        </mxCell>
        <mxCell id="63PMhtbG-VXiKkrFZsze-22" value="Cart" style="rounded=0;whiteSpace=wrap;html=1;" parent="1" vertex="1">
          <mxGeometry x="110" y="1050" width="120" height="60" as="geometry" />
        </mxCell>
        <mxCell id="63PMhtbG-VXiKkrFZsze-23" value="Selected products" style="rounded=0;whiteSpace=wrap;html=1;" parent="1" vertex="1">
          <mxGeometry x="280" y="1010" width="120" height="60" as="geometry" />
        </mxCell>
        <mxCell id="63PMhtbG-VXiKkrFZsze-31" style="edgeStyle=orthogonalEdgeStyle;rounded=0;orthogonalLoop=1;jettySize=auto;html=1;" parent="1" source="63PMhtbG-VXiKkrFZsze-25" target="63PMhtbG-VXiKkrFZsze-30" edge="1">
          <mxGeometry relative="1" as="geometry" />
        </mxCell>
        <mxCell id="63PMhtbG-VXiKkrFZsze-25" value="Order" style="rounded=0;whiteSpace=wrap;html=1;" parent="1" vertex="1">
          <mxGeometry x="280" y="1110" width="120" height="60" as="geometry" />
        </mxCell>
        <mxCell id="63PMhtbG-VXiKkrFZsze-27" value="&lt;div&gt;Get customer info&lt;/div&gt;" style="rounded=0;whiteSpace=wrap;html=1;" parent="1" vertex="1">
          <mxGeometry x="590" y="1150" width="120" height="70" as="geometry" />
        </mxCell>
        <mxCell id="63PMhtbG-VXiKkrFZsze-29" value="Authentication" style="rounded=0;whiteSpace=wrap;html=1;" parent="1" vertex="1">
          <mxGeometry x="590" y="1030" width="120" height="60" as="geometry" />
        </mxCell>
        <mxCell id="63PMhtbG-VXiKkrFZsze-34" style="edgeStyle=orthogonalEdgeStyle;rounded=0;orthogonalLoop=1;jettySize=auto;html=1;entryX=0;entryY=0.5;entryDx=0;entryDy=0;" parent="1" source="63PMhtbG-VXiKkrFZsze-30" target="63PMhtbG-VXiKkrFZsze-29" edge="1">
          <mxGeometry relative="1" as="geometry" />
        </mxCell>
        <mxCell id="63PMhtbG-VXiKkrFZsze-47" style="edgeStyle=orthogonalEdgeStyle;rounded=0;orthogonalLoop=1;jettySize=auto;html=1;entryX=0;entryY=0.5;entryDx=0;entryDy=0;" parent="1" source="63PMhtbG-VXiKkrFZsze-30" target="63PMhtbG-VXiKkrFZsze-27" edge="1">
          <mxGeometry relative="1" as="geometry" />
        </mxCell>
        <mxCell id="63PMhtbG-VXiKkrFZsze-30" value="Logged in?" style="rhombus;whiteSpace=wrap;html=1;" parent="1" vertex="1">
          <mxGeometry x="450" y="1090" width="80" height="80" as="geometry" />
        </mxCell>
        <mxCell id="63PMhtbG-VXiKkrFZsze-35" value="No" style="text;html=1;strokeColor=none;fillColor=none;align=center;verticalAlign=middle;whiteSpace=wrap;rounded=0;" parent="1" vertex="1">
          <mxGeometry x="510" y="1030" width="40" height="20" as="geometry" />
        </mxCell>
        <mxCell id="63PMhtbG-VXiKkrFZsze-38" value="Name" style="rounded=0;whiteSpace=wrap;html=1;" parent="1" vertex="1">
          <mxGeometry x="30" y="50" width="120" height="60" as="geometry" />
        </mxCell>
        <mxCell id="63PMhtbG-VXiKkrFZsze-39" value="Address" style="rounded=0;whiteSpace=wrap;html=1;" parent="1" vertex="1">
          <mxGeometry x="30" y="140" width="120" height="60" as="geometry" />
        </mxCell>
        <mxCell id="63PMhtbG-VXiKkrFZsze-40" value="Phone number" style="rounded=0;whiteSpace=wrap;html=1;" parent="1" vertex="1">
          <mxGeometry x="30" y="220" width="120" height="60" as="geometry" />
        </mxCell>
        <mxCell id="63PMhtbG-VXiKkrFZsze-41" value="Username/Password" style="rounded=0;whiteSpace=wrap;html=1;" parent="1" vertex="1">
          <mxGeometry x="30" y="-40" width="120" height="60" as="geometry" />
        </mxCell>
        <mxCell id="63PMhtbG-VXiKkrFZsze-48" value="Yes" style="text;html=1;strokeColor=none;fillColor=none;align=center;verticalAlign=middle;whiteSpace=wrap;rounded=0;" parent="1" vertex="1">
          <mxGeometry x="520" y="1200" width="40" height="20" as="geometry" />
        </mxCell>
        <mxCell id="63PMhtbG-VXiKkrFZsze-51" style="edgeStyle=orthogonalEdgeStyle;rounded=0;orthogonalLoop=1;jettySize=auto;html=1;entryX=0;entryY=0.5;entryDx=0;entryDy=0;" parent="1" source="63PMhtbG-VXiKkrFZsze-49" target="63PMhtbG-VXiKkrFZsze-50" edge="1">
          <mxGeometry relative="1" as="geometry" />
        </mxCell>
        <mxCell id="63PMhtbG-VXiKkrFZsze-53" style="edgeStyle=orthogonalEdgeStyle;rounded=0;orthogonalLoop=1;jettySize=auto;html=1;entryX=0;entryY=0.5;entryDx=0;entryDy=0;" parent="1" source="63PMhtbG-VXiKkrFZsze-49" target="63PMhtbG-VXiKkrFZsze-52" edge="1">
          <mxGeometry relative="1" as="geometry" />
        </mxCell>
        <mxCell id="63PMhtbG-VXiKkrFZsze-49" value="View history" style="rounded=0;whiteSpace=wrap;html=1;" parent="1" vertex="1">
          <mxGeometry x="110" y="1290" width="120" height="60" as="geometry" />
        </mxCell>
        <mxCell id="63PMhtbG-VXiKkrFZsze-50" value="On deliver / deliverd" style="rounded=0;whiteSpace=wrap;html=1;" parent="1" vertex="1">
          <mxGeometry x="290" y="1230" width="120" height="60" as="geometry" />
        </mxCell>
        <mxCell id="63PMhtbG-VXiKkrFZsze-52" value="&lt;div&gt;Pending&lt;/div&gt;(cancelable)" style="rounded=0;whiteSpace=wrap;html=1;" parent="1" vertex="1">
          <mxGeometry x="290" y="1360" width="120" height="60" as="geometry" />
        </mxCell>
        <mxCell id="63PMhtbG-VXiKkrFZsze-77" style="edgeStyle=orthogonalEdgeStyle;rounded=0;orthogonalLoop=1;jettySize=auto;html=1;entryX=0;entryY=0.5;entryDx=0;entryDy=0;" parent="1" source="63PMhtbG-VXiKkrFZsze-65" target="63PMhtbG-VXiKkrFZsze-67" edge="1">
          <mxGeometry relative="1" as="geometry" />
        </mxCell>
        <mxCell id="63PMhtbG-VXiKkrFZsze-78" style="edgeStyle=orthogonalEdgeStyle;rounded=0;orthogonalLoop=1;jettySize=auto;html=1;entryX=0;entryY=0.5;entryDx=0;entryDy=0;" parent="1" source="63PMhtbG-VXiKkrFZsze-65" target="63PMhtbG-VXiKkrFZsze-66" edge="1">
          <mxGeometry relative="1" as="geometry" />
        </mxCell>
        <mxCell id="63PMhtbG-VXiKkrFZsze-65" value="&lt;div&gt;Homepage&lt;/div&gt;&lt;div&gt;(Employee)&lt;br&gt;&lt;/div&gt;" style="rounded=0;whiteSpace=wrap;html=1;" parent="1" vertex="1">
          <mxGeometry x="1040" y="10" width="120" height="60" as="geometry" />
        </mxCell>
        <mxCell id="63PMhtbG-VXiKkrFZsze-81" style="edgeStyle=orthogonalEdgeStyle;rounded=0;orthogonalLoop=1;jettySize=auto;html=1;entryX=0;entryY=0.5;entryDx=0;entryDy=0;" parent="1" source="63PMhtbG-VXiKkrFZsze-66" target="63PMhtbG-VXiKkrFZsze-80" edge="1">
          <mxGeometry relative="1" as="geometry" />
        </mxCell>
        <mxCell id="63PMhtbG-VXiKkrFZsze-66" value="Manage order line" style="rounded=0;whiteSpace=wrap;html=1;" parent="1" vertex="1">
          <mxGeometry x="1240" y="-90" width="120" height="60" as="geometry" />
        </mxCell>
        <mxCell id="63PMhtbG-VXiKkrFZsze-71" style="edgeStyle=orthogonalEdgeStyle;rounded=0;orthogonalLoop=1;jettySize=auto;html=1;entryX=0;entryY=0.5;entryDx=0;entryDy=0;" parent="1" source="63PMhtbG-VXiKkrFZsze-67" target="63PMhtbG-VXiKkrFZsze-72" edge="1">
          <mxGeometry relative="1" as="geometry">
            <mxPoint x="1480" y="100" as="targetPoint" />
          </mxGeometry>
        </mxCell>
        <mxCell id="63PMhtbG-VXiKkrFZsze-74" style="edgeStyle=orthogonalEdgeStyle;rounded=0;orthogonalLoop=1;jettySize=auto;html=1;entryX=0;entryY=0.5;entryDx=0;entryDy=0;" parent="1" source="63PMhtbG-VXiKkrFZsze-67" target="63PMhtbG-VXiKkrFZsze-73" edge="1">
          <mxGeometry relative="1" as="geometry" />
        </mxCell>
        <mxCell id="63PMhtbG-VXiKkrFZsze-76" style="edgeStyle=orthogonalEdgeStyle;rounded=0;orthogonalLoop=1;jettySize=auto;html=1;entryX=0;entryY=0.5;entryDx=0;entryDy=0;" parent="1" source="63PMhtbG-VXiKkrFZsze-67" target="63PMhtbG-VXiKkrFZsze-75" edge="1">
          <mxGeometry relative="1" as="geometry" />
        </mxCell>
        <mxCell id="63PMhtbG-VXiKkrFZsze-67" value="&lt;div&gt;Check nearly expire products&lt;/div&gt;&lt;div&gt;in 3 months&lt;br&gt;&lt;/div&gt;&lt;div&gt;(Show in table format)&lt;/div&gt;" style="rounded=0;whiteSpace=wrap;html=1;" parent="1" vertex="1">
          <mxGeometry x="1240" y="140" width="180" height="60" as="geometry" />
        </mxCell>
        <mxCell id="63PMhtbG-VXiKkrFZsze-72" value="Product name" style="rounded=0;whiteSpace=wrap;html=1;" parent="1" vertex="1">
          <mxGeometry x="1490" y="50" width="120" height="60" as="geometry" />
        </mxCell>
        <mxCell id="63PMhtbG-VXiKkrFZsze-73" value="Expiry date" style="rounded=0;whiteSpace=wrap;html=1;" parent="1" vertex="1">
          <mxGeometry x="1490" y="160" width="120" height="60" as="geometry" />
        </mxCell>
        <mxCell id="63PMhtbG-VXiKkrFZsze-75" value="Quantity" style="rounded=0;whiteSpace=wrap;html=1;" parent="1" vertex="1">
          <mxGeometry x="1490" y="260" width="120" height="60" as="geometry" />
        </mxCell>
        <mxCell id="63PMhtbG-VXiKkrFZsze-87" style="edgeStyle=orthogonalEdgeStyle;rounded=0;orthogonalLoop=1;jettySize=auto;html=1;" parent="1" source="63PMhtbG-VXiKkrFZsze-80" target="63PMhtbG-VXiKkrFZsze-86" edge="1">
          <mxGeometry relative="1" as="geometry" />
        </mxCell>
        <mxCell id="63PMhtbG-VXiKkrFZsze-80" value="Enough?" style="rhombus;whiteSpace=wrap;html=1;" parent="1" vertex="1">
          <mxGeometry x="1430" y="-140" width="80" height="80" as="geometry" />
        </mxCell>
        <mxCell id="63PMhtbG-VXiKkrFZsze-82" value="&lt;div&gt;Confirmable&lt;/div&gt;&lt;div&gt;(remove from storage)&lt;br&gt;&lt;/div&gt;" style="rounded=0;whiteSpace=wrap;html=1;" parent="1" vertex="1">
          <mxGeometry x="1730" y="-200" width="120" height="60" as="geometry" />
        </mxCell>
        <mxCell id="63PMhtbG-VXiKkrFZsze-84" value="Auto cancle" style="rounded=0;whiteSpace=wrap;html=1;" parent="1" vertex="1">
          <mxGeometry x="1730" y="-40" width="120" height="60" as="geometry" />
        </mxCell>
        <mxCell id="63PMhtbG-VXiKkrFZsze-88" style="edgeStyle=orthogonalEdgeStyle;rounded=0;orthogonalLoop=1;jettySize=auto;html=1;entryX=0;entryY=0.5;entryDx=0;entryDy=0;" parent="1" source="63PMhtbG-VXiKkrFZsze-86" target="63PMhtbG-VXiKkrFZsze-82" edge="1">
          <mxGeometry relative="1" as="geometry" />
        </mxCell>
        <mxCell id="63PMhtbG-VXiKkrFZsze-90" style="edgeStyle=orthogonalEdgeStyle;rounded=0;orthogonalLoop=1;jettySize=auto;html=1;entryX=0;entryY=0.5;entryDx=0;entryDy=0;" parent="1" source="63PMhtbG-VXiKkrFZsze-86" target="63PMhtbG-VXiKkrFZsze-84" edge="1">
          <mxGeometry relative="1" as="geometry" />
        </mxCell>
        <mxCell id="63PMhtbG-VXiKkrFZsze-86" value="Nearly expired?" style="rhombus;whiteSpace=wrap;html=1;" parent="1" vertex="1">
          <mxGeometry x="1570" y="-150" width="110" height="100" as="geometry" />
        </mxCell>
        <mxCell id="63PMhtbG-VXiKkrFZsze-89" value="Yes" style="text;html=1;strokeColor=none;fillColor=none;align=center;verticalAlign=middle;whiteSpace=wrap;rounded=0;" parent="1" vertex="1">
          <mxGeometry x="1660" y="-180" width="40" height="20" as="geometry" />
        </mxCell>
        <mxCell id="63PMhtbG-VXiKkrFZsze-91" value="No" style="text;html=1;strokeColor=none;fillColor=none;align=center;verticalAlign=middle;whiteSpace=wrap;rounded=0;" parent="1" vertex="1">
          <mxGeometry x="1660" width="40" height="20" as="geometry" />
        </mxCell>
        <mxCell id="63PMhtbG-VXiKkrFZsze-94" style="edgeStyle=orthogonalEdgeStyle;rounded=0;orthogonalLoop=1;jettySize=auto;html=1;entryX=0.347;entryY=1.01;entryDx=0;entryDy=0;entryPerimeter=0;" parent="1" source="63PMhtbG-VXiKkrFZsze-93" target="63PMhtbG-VXiKkrFZsze-92" edge="1">
          <mxGeometry relative="1" as="geometry" />
        </mxCell>
        <mxCell id="63PMhtbG-VXiKkrFZsze-93" value="" style="rounded=0;whiteSpace=wrap;html=1;" parent="1" vertex="1">
          <mxGeometry x="1020" y="495" width="1040" height="1380" as="geometry" />
        </mxCell>
        <mxCell id="63PMhtbG-VXiKkrFZsze-127" style="edgeStyle=orthogonalEdgeStyle;rounded=0;orthogonalLoop=1;jettySize=auto;html=1;entryX=0;entryY=0.5;entryDx=0;entryDy=0;" parent="1" source="63PMhtbG-VXiKkrFZsze-95" target="63PMhtbG-VXiKkrFZsze-96" edge="1">
          <mxGeometry relative="1" as="geometry" />
        </mxCell>
        <mxCell id="63PMhtbG-VXiKkrFZsze-128" style="edgeStyle=orthogonalEdgeStyle;rounded=0;orthogonalLoop=1;jettySize=auto;html=1;entryX=0;entryY=0.5;entryDx=0;entryDy=0;" parent="1" source="63PMhtbG-VXiKkrFZsze-95" target="63PMhtbG-VXiKkrFZsze-105" edge="1">
          <mxGeometry relative="1" as="geometry" />
        </mxCell>
        <mxCell id="63PMhtbG-VXiKkrFZsze-130" style="edgeStyle=orthogonalEdgeStyle;rounded=0;orthogonalLoop=1;jettySize=auto;html=1;entryX=0;entryY=0.5;entryDx=0;entryDy=0;" parent="1" source="63PMhtbG-VXiKkrFZsze-95" target="63PMhtbG-VXiKkrFZsze-131" edge="1">
          <mxGeometry relative="1" as="geometry">
            <mxPoint x="1275" y="1160" as="targetPoint" />
          </mxGeometry>
        </mxCell>
        <mxCell id="63PMhtbG-VXiKkrFZsze-95" value="&lt;div&gt;Homepage&lt;/div&gt;&lt;div&gt;(Manager)&lt;br&gt;&lt;/div&gt;" style="rounded=0;whiteSpace=wrap;html=1;" parent="1" vertex="1">
          <mxGeometry x="1085" y="810" width="120" height="60" as="geometry" />
        </mxCell>
        <mxCell id="63PMhtbG-VXiKkrFZsze-101" style="edgeStyle=orthogonalEdgeStyle;rounded=0;orthogonalLoop=1;jettySize=auto;html=1;entryX=0;entryY=0.5;entryDx=0;entryDy=0;" parent="1" source="63PMhtbG-VXiKkrFZsze-96" target="63PMhtbG-VXiKkrFZsze-97" edge="1">
          <mxGeometry relative="1" as="geometry" />
        </mxCell>
        <mxCell id="63PMhtbG-VXiKkrFZsze-102" style="edgeStyle=orthogonalEdgeStyle;rounded=0;orthogonalLoop=1;jettySize=auto;html=1;entryX=0;entryY=0.5;entryDx=0;entryDy=0;" parent="1" source="63PMhtbG-VXiKkrFZsze-96" target="63PMhtbG-VXiKkrFZsze-98" edge="1">
          <mxGeometry relative="1" as="geometry" />
        </mxCell>
        <mxCell id="63PMhtbG-VXiKkrFZsze-103" style="edgeStyle=orthogonalEdgeStyle;rounded=0;orthogonalLoop=1;jettySize=auto;html=1;entryX=0;entryY=0.5;entryDx=0;entryDy=0;" parent="1" source="63PMhtbG-VXiKkrFZsze-96" target="63PMhtbG-VXiKkrFZsze-99" edge="1">
          <mxGeometry relative="1" as="geometry" />
        </mxCell>
        <mxCell id="63PMhtbG-VXiKkrFZsze-104" style="edgeStyle=orthogonalEdgeStyle;rounded=0;orthogonalLoop=1;jettySize=auto;html=1;entryX=0;entryY=0.5;entryDx=0;entryDy=0;" parent="1" source="63PMhtbG-VXiKkrFZsze-96" target="63PMhtbG-VXiKkrFZsze-100" edge="1">
          <mxGeometry relative="1" as="geometry" />
        </mxCell>
        <mxCell id="-UYXWbFUWokHSzHqEb_B-2" style="edgeStyle=orthogonalEdgeStyle;rounded=0;orthogonalLoop=1;jettySize=auto;html=1;entryX=0;entryY=0.5;entryDx=0;entryDy=0;" edge="1" parent="1" source="63PMhtbG-VXiKkrFZsze-96" target="-UYXWbFUWokHSzHqEb_B-1">
          <mxGeometry relative="1" as="geometry" />
        </mxCell>
        <mxCell id="-UYXWbFUWokHSzHqEb_B-4" style="edgeStyle=orthogonalEdgeStyle;rounded=0;orthogonalLoop=1;jettySize=auto;html=1;entryX=0;entryY=0.5;entryDx=0;entryDy=0;" edge="1" parent="1" source="63PMhtbG-VXiKkrFZsze-96" target="-UYXWbFUWokHSzHqEb_B-3">
          <mxGeometry relative="1" as="geometry" />
        </mxCell>
        <mxCell id="63PMhtbG-VXiKkrFZsze-96" value="Manage products" style="rounded=0;whiteSpace=wrap;html=1;" parent="1" vertex="1">
          <mxGeometry x="1275" y="730" width="120" height="60" as="geometry" />
        </mxCell>
        <mxCell id="63PMhtbG-VXiKkrFZsze-97" value="Name" style="rounded=0;whiteSpace=wrap;html=1;" parent="1" vertex="1">
          <mxGeometry x="1455" y="510" width="120" height="60" as="geometry" />
        </mxCell>
        <mxCell id="63PMhtbG-VXiKkrFZsze-98" value="Import date" style="rounded=0;whiteSpace=wrap;html=1;" parent="1" vertex="1">
          <mxGeometry x="1455" y="600" width="120" height="60" as="geometry" />
        </mxCell>
        <mxCell id="63PMhtbG-VXiKkrFZsze-99" value="Quantity" style="rounded=0;whiteSpace=wrap;html=1;" parent="1" vertex="1">
          <mxGeometry x="1455" y="870" width="120" height="60" as="geometry" />
        </mxCell>
        <mxCell id="63PMhtbG-VXiKkrFZsze-100" value="Expiry date" style="rounded=0;whiteSpace=wrap;html=1;" parent="1" vertex="1">
          <mxGeometry x="1455" y="950" width="120" height="60" as="geometry" />
        </mxCell>
        <mxCell id="63PMhtbG-VXiKkrFZsze-105" value="Manage accounts" style="rounded=0;whiteSpace=wrap;html=1;" parent="1" vertex="1">
          <mxGeometry x="1275" y="1010" width="120" height="60" as="geometry" />
        </mxCell>
        <mxCell id="63PMhtbG-VXiKkrFZsze-134" style="edgeStyle=orthogonalEdgeStyle;rounded=0;orthogonalLoop=1;jettySize=auto;html=1;" parent="1" source="63PMhtbG-VXiKkrFZsze-131" target="63PMhtbG-VXiKkrFZsze-133" edge="1">
          <mxGeometry relative="1" as="geometry" />
        </mxCell>
        <mxCell id="63PMhtbG-VXiKkrFZsze-135" style="edgeStyle=orthogonalEdgeStyle;rounded=0;orthogonalLoop=1;jettySize=auto;html=1;entryX=0;entryY=0.5;entryDx=0;entryDy=0;" parent="1" source="63PMhtbG-VXiKkrFZsze-131" target="63PMhtbG-VXiKkrFZsze-132" edge="1">
          <mxGeometry relative="1" as="geometry" />
        </mxCell>
        <mxCell id="63PMhtbG-VXiKkrFZsze-131" value="Put product on sale" style="rounded=0;whiteSpace=wrap;html=1;" parent="1" vertex="1">
          <mxGeometry x="1275" y="1120" width="120" height="60" as="geometry" />
        </mxCell>
        <mxCell id="63PMhtbG-VXiKkrFZsze-132" value="&lt;div&gt;Search products to put&lt;br&gt;&lt;/div&gt;" style="rounded=0;whiteSpace=wrap;html=1;" parent="1" vertex="1">
          <mxGeometry x="1455" y="1180" width="120" height="60" as="geometry" />
        </mxCell>
        <mxCell id="63PMhtbG-VXiKkrFZsze-133" value="&lt;div&gt;View product list&lt;/div&gt;&lt;div&gt;(priorities nearly expired products)&lt;br&gt;&lt;/div&gt;" style="rounded=0;whiteSpace=wrap;html=1;" parent="1" vertex="1">
          <mxGeometry x="1455" y="1080" width="120" height="60" as="geometry" />
        </mxCell>
        <mxCell id="63PMhtbG-VXiKkrFZsze-122" value="" style="rounded=0;whiteSpace=wrap;html=1;" parent="1" vertex="1">
          <mxGeometry x="1460" y="1400" width="570" height="360" as="geometry" />
        </mxCell>
        <mxCell id="63PMhtbG-VXiKkrFZsze-108" value="Coca" style="rounded=0;whiteSpace=wrap;html=1;" parent="1" vertex="1">
          <mxGeometry x="1530" y="1570" width="120" height="60" as="geometry" />
        </mxCell>
        <mxCell id="63PMhtbG-VXiKkrFZsze-109" value="2/8/2021" style="rounded=0;whiteSpace=wrap;html=1;" parent="1" vertex="1">
          <mxGeometry x="1650" y="1570" width="120" height="60" as="geometry" />
        </mxCell>
        <mxCell id="63PMhtbG-VXiKkrFZsze-110" value="2/8/2022" style="rounded=0;whiteSpace=wrap;html=1;" parent="1" vertex="1">
          <mxGeometry x="1770" y="1570" width="120" height="60" as="geometry" />
        </mxCell>
        <mxCell id="63PMhtbG-VXiKkrFZsze-114" value="1" style="rounded=0;whiteSpace=wrap;html=1;" parent="1" vertex="1">
          <mxGeometry x="1890" y="1570" width="120" height="60" as="geometry" />
        </mxCell>
        <mxCell id="63PMhtbG-VXiKkrFZsze-115" value="&lt;div&gt;mua 1&lt;/div&gt;&lt;div&gt;ok&lt;/div&gt;&lt;div&gt;-1 quantity&lt;br&gt;&lt;/div&gt;" style="rounded=0;whiteSpace=wrap;html=1;" parent="1" vertex="1">
          <mxGeometry x="1740" y="1470" width="120" height="60" as="geometry" />
        </mxCell>
        <mxCell id="63PMhtbG-VXiKkrFZsze-117" value="Coca" style="rounded=0;whiteSpace=wrap;html=1;" parent="1" vertex="1">
          <mxGeometry x="1530" y="1630" width="120" height="60" as="geometry" />
        </mxCell>
        <mxCell id="63PMhtbG-VXiKkrFZsze-118" value="3/8/2021" style="rounded=0;whiteSpace=wrap;html=1;" parent="1" vertex="1">
          <mxGeometry x="1650" y="1630" width="120" height="60" as="geometry" />
        </mxCell>
        <mxCell id="63PMhtbG-VXiKkrFZsze-119" value="4/8/2022" style="rounded=0;whiteSpace=wrap;html=1;" parent="1" vertex="1">
          <mxGeometry x="1770" y="1630" width="120" height="60" as="geometry" />
        </mxCell>
        <mxCell id="63PMhtbG-VXiKkrFZsze-120" value="3" style="rounded=0;whiteSpace=wrap;html=1;" parent="1" vertex="1">
          <mxGeometry x="1890" y="1630" width="120" height="60" as="geometry" />
        </mxCell>
        <mxCell id="63PMhtbG-VXiKkrFZsze-121" value="&lt;div&gt;For ver 0.2:&lt;/div&gt;&lt;div&gt;Query hàng theo ngày nhập kho / ngày hết hạn&lt;br&gt;&lt;/div&gt;" style="rounded=0;whiteSpace=wrap;html=1;" parent="1" vertex="1">
          <mxGeometry x="1580" y="1480" width="120" height="60" as="geometry" />
        </mxCell>
        <mxCell id="uDvfB2BET4wj3oGAMfGR-2" value="&lt;font style=&quot;font-size: 20px&quot; color=&quot;#006600&quot;&gt;Trung Hiếu&lt;br&gt;&lt;/font&gt;" style="text;html=1;strokeColor=none;fillColor=none;align=center;verticalAlign=middle;whiteSpace=wrap;rounded=0;" parent="1" vertex="1">
          <mxGeometry x="1110" y="550" width="40" height="20" as="geometry" />
        </mxCell>
        <mxCell id="cl_5ZyBsMZnqBGYvo7eT-1" value="Vu Tung" style="text;html=1;strokeColor=none;fillColor=none;align=center;verticalAlign=middle;whiteSpace=wrap;rounded=0;" parent="1" vertex="1">
          <mxGeometry x="-260" y="580" width="80" height="20" as="geometry" />
        </mxCell>
        <mxCell id="TZprre2X_yVu05Ys7I2x-1" value="Vu" style="text;html=1;strokeColor=none;fillColor=none;align=center;verticalAlign=middle;whiteSpace=wrap;rounded=0;" parent="1" vertex="1">
          <mxGeometry x="-230" y="-350" width="80" height="30" as="geometry" />
        </mxCell>
        <mxCell id="-UYXWbFUWokHSzHqEb_B-1" value="Price" style="rounded=0;whiteSpace=wrap;html=1;" vertex="1" parent="1">
          <mxGeometry x="1455" y="700" width="120" height="60" as="geometry" />
        </mxCell>
        <mxCell id="-UYXWbFUWokHSzHqEb_B-3" value="Category" style="rounded=0;whiteSpace=wrap;html=1;" vertex="1" parent="1">
          <mxGeometry x="1455" y="790" width="120" height="60" as="geometry" />
        </mxCell>
      </root>
    </mxGraphModel>
  </diagram>
</mxfile>
